<svg width="147" height="45" viewBox="0 0 147 45" fill="none" xmlns="http://www.w3.org/2000/svg">
<path d="M33.2895 6.40835H30.8189V3.51132C31.3654 3.18686 31.7411 2.58428 31.7411 1.88899C31.7411 0.846062 30.91 0.0117188 29.8968 0.0117188C28.8835 0.0117188 28.0524 0.85765 28.0524 1.88899C28.0524 2.58428 28.4281 3.18686 28.9746 3.51132V6.41994H3.64317C1.63943 6.41994 0 8.07703 0 10.1281V40.3151C0 42.3546 1.62804 44.0233 3.64317 44.0233H33.2895C35.2932 44.0233 36.9326 42.3662 36.9326 40.3151V10.1165C36.9326 8.07703 35.3046 6.40835 33.2895 6.40835ZM33.2439 40.2456H3.68871V10.1629H33.2439V40.2572V40.2456Z" fill="#292929"/>
<path d="M12.4323 24.6596C14.2197 24.6596 15.6656 23.1879 15.6656 21.3686C15.6656 19.5492 14.2197 18.0776 12.4323 18.0776C10.6449 18.0776 9.199 19.5492 9.199 21.3686C9.199 23.1879 10.6449 24.6596 12.4323 24.6596ZM12.4323 20.2793C13.0243 20.2793 13.5139 20.766 13.5139 21.3802C13.5139 21.9943 13.0357 22.481 12.4323 22.481C11.8289 22.481 11.3507 21.9943 11.3507 21.3802C11.3507 20.766 11.8289 20.2793 12.4323 20.2793Z" fill="#292929"/>
<path d="M22.1209 23.1416H25.8096C26.8342 23.1416 27.6539 22.5622 27.6539 21.8437C27.6539 21.1252 26.8228 20.5458 25.8096 20.5458H22.1209C21.0962 20.5458 20.2765 21.1252 20.2765 21.8437C20.2765 22.5622 21.1076 23.1416 22.1209 23.1416Z" fill="#292929"/>
<path d="M14.8687 31.7167C15.6884 33.1653 17.2026 34.0691 18.8648 34.0691C20.527 34.0691 22.0639 33.1537 22.8723 31.7052C23.1227 31.2532 22.9747 30.6854 22.5307 30.4189C22.0867 30.1639 21.5289 30.3146 21.267 30.7665C20.7774 31.6356 19.8667 32.1919 18.8648 32.1919C17.8629 32.1919 16.9521 31.6472 16.4626 30.7781C16.2121 30.3262 15.6429 30.1755 15.1988 30.4305C14.7548 30.6854 14.6068 31.2648 14.8573 31.7167H14.8687Z" fill="#292929"/>
<path d="M46.7123 17.2316C46.7123 15.9106 47.5661 15.0183 48.8868 15.0183C50.2074 15.0183 51.0613 15.9106 51.0613 17.2316V23.6514L57.9036 15.9801C58.4045 15.4355 58.8599 15.0067 59.6227 15.0067C60.6588 15.0067 61.6948 15.6556 61.6948 16.7913C61.6948 17.4634 61.3532 17.9269 60.9775 18.2977L56.526 23.072L61.8086 31.2532C62.2071 31.879 62.6283 32.4352 62.6283 33.003C62.6283 34.6485 61.4329 35.1352 60.3969 35.1352C59.5203 35.1352 59.0421 34.9151 58.4615 33.9764L53.4521 26.0965L51.0613 28.53V32.9335C51.0613 34.2545 50.2074 35.1468 48.8868 35.1468C47.5661 35.1468 46.7123 34.2545 46.7123 32.9335V17.2316Z" fill="#292929"/>
<path d="M77.5312 30.9983C77.5312 32.6438 77.9297 33.0262 77.9297 33.6404C77.9297 34.5327 77.11 35.1468 76.1764 35.1468C74.5028 35.1468 73.9449 34.0691 73.8994 32.8524C72.3852 34.5558 70.6319 35.1468 68.594 35.1468C66.3968 35.1468 64.2222 33.6056 64.2222 31.1258C64.2222 27.8579 66.6586 26.9425 69.6301 26.5948L71.9867 26.3283C72.9203 26.224 73.6603 26.0038 73.6603 24.8682C73.6603 23.7325 72.5218 23.2458 71.224 23.2458C68.355 23.2458 68.2753 25.4012 66.7383 25.4012C65.7592 25.4012 65.0989 24.6944 65.0989 23.8948C65.0989 22.3304 67.2734 20.3257 71.2467 20.3257C74.9582 20.3257 77.5312 21.5424 77.5312 24.3699V30.9983ZM73.6603 28.1592C73.2391 28.5648 72.4421 28.7038 71.9867 28.785L70.5864 29.0051C68.9697 29.2485 68.0931 29.7584 68.0931 30.9519C68.0931 31.8442 68.9128 32.5743 70.2449 32.5743C72.3624 32.5743 73.6717 31.1721 73.6717 29.712V28.1708L73.6603 28.1592Z" fill="#292929"/>
<path d="M83.2806 14.914C84.3963 14.914 85.2957 15.8295 85.2957 16.9651C85.2957 18.1007 84.3963 19.0162 83.2806 19.0162C82.1648 19.0162 81.2654 18.1007 81.2654 16.9651C81.2654 15.8295 82.1648 14.914 83.2806 14.914ZM81.3451 22.3072C81.3451 21.2527 81.7664 20.3372 83.2806 20.3372C84.7948 20.3372 85.216 21.2527 85.216 22.3072V33.1884C85.216 34.243 84.7948 35.1584 83.2806 35.1584C81.7664 35.1584 81.3451 34.243 81.3451 33.1884V22.3072Z" fill="#292929"/>
<path d="M88.9844 22.1682C88.9844 20.9746 89.7586 20.3372 90.7377 20.3372C91.7168 20.3372 92.491 20.9862 92.491 22.1682V23.6746H92.5479C93.0033 22.0291 93.8685 20.3257 95.7584 20.3257C96.9766 20.3257 97.876 21.1368 97.876 22.2377C97.876 23.6978 96.9197 24.2077 95.9633 24.2077H95.2689C93.7091 24.2077 92.8553 25.3201 92.8553 28.5764V33.1653C92.8553 34.2198 92.434 35.1352 90.9198 35.1352C89.4056 35.1352 88.9844 34.2198 88.9844 33.1653V22.1566V22.1682Z" fill="#292929"/>
<path d="M112.221 30.9983C112.221 32.6438 112.619 33.0262 112.619 33.6404C112.619 34.5327 111.8 35.1468 110.866 35.1468C109.193 35.1468 108.635 34.0691 108.589 32.8524C107.075 34.5558 105.322 35.1468 103.284 35.1468C101.087 35.1468 98.912 33.6056 98.912 31.1258C98.912 27.8579 101.348 26.9425 104.32 26.5948L106.677 26.3283C107.61 26.224 108.35 26.0038 108.35 24.8682C108.35 23.7325 107.212 23.2458 105.914 23.2458C103.045 23.2458 102.965 25.4012 101.428 25.4012C100.449 25.4012 99.7887 24.6944 99.7887 23.8948C99.7887 22.3304 101.963 20.3257 105.937 20.3257C109.648 20.3257 112.221 21.5424 112.221 24.3699V30.9983ZM108.35 28.1592C107.929 28.5648 107.132 28.7038 106.677 28.785L105.276 29.0051C103.66 29.2485 102.783 29.7584 102.783 30.9519C102.783 31.8442 103.603 32.5743 104.935 32.5743C107.052 32.5743 108.362 31.1721 108.362 29.712V28.1708L108.35 28.1592Z" fill="#292929"/>
<path d="M115.819 22.2029C115.819 20.9862 116.376 20.3372 117.572 20.3372C118.767 20.3372 119.325 20.9862 119.325 22.2029V22.8287H119.382C120.02 21.16 121.579 20.3488 123.469 20.3488C126.703 20.3488 129.549 22.7476 129.549 27.8579C129.549 31.6356 127.67 35.17 123.583 35.17C121.807 35.17 120.475 34.4399 119.769 33.1768H119.712V38.4378C119.712 39.7357 118.938 40.4078 117.777 40.4078C116.616 40.4078 115.841 39.7357 115.841 38.4378V22.2145L115.819 22.2029ZM122.581 23.4197C120.327 23.4197 119.473 25.4708 119.473 27.7073C119.473 29.7352 120.213 32.1107 122.581 32.076C125.052 32.076 125.655 29.5382 125.655 27.7073C125.655 25.3896 124.642 23.466 122.581 23.4197Z" fill="#292929"/>
<path d="M132.293 22.2029C132.293 20.9862 132.85 20.3372 134.046 20.3372C135.241 20.3372 135.799 20.9862 135.799 22.2029V22.8287H135.856C136.494 21.16 138.053 20.3488 139.943 20.3488C143.177 20.3488 146.011 22.7476 146.011 27.8579C146.011 31.6356 144.133 35.17 140.046 35.17C138.27 35.17 136.938 34.4399 136.232 33.1768H136.175V38.4378C136.175 39.7357 135.401 40.4078 134.239 40.4078C133.078 40.4078 132.304 39.7357 132.304 38.4378V22.2145L132.293 22.2029ZM139.055 23.4197C136.801 23.4197 135.947 25.4708 135.947 27.7073C135.947 29.7352 136.687 32.1107 139.055 32.076C141.526 32.076 142.129 29.5382 142.129 27.7073C142.129 25.3896 141.116 23.466 139.055 23.4197Z" fill="#292929"/>
</svg>
