<?xml version="1.0" encoding="UTF-8"?>
<svg id="Layer_2" data-name="Layer 2" xmlns="http://www.w3.org/2000/svg" viewBox="0 0 300 352.15">
  <defs>
    <style>
      .cls-1 {
        fill: #222221;
      }
    </style>
  </defs>
  <g id="Layer_1-2" data-name="Layer 1">
    <g>
      <path class="cls-1" d="M270.37,51.43h-21.37V28.13c5.3-3.08,8.55-9.33,7.19-16.17-1.14-5.75-5.74-10.42-11.46-11.62-9.69-2.03-18.23,5.35-18.23,14.73,0,5.58,3.02,10.45,7.5,13.06v23.3H29.63C13.27,51.43,0,64.73,0,81.13v241.32c0,16.4,13.27,29.7,29.63,29.7h240.74c16.36,0,29.63-13.3,29.63-29.7V81.13c0-16.4-13.27-29.7-29.63-29.7Zm-.37,270.65H30V81.5h240v240.58Z"/>
      <path class="cls-1" d="M99.38,198.79c14.53,0,26.31-11.81,26.31-26.38s-11.78-26.38-26.31-26.38-26.31,11.81-26.31,26.38,11.78,26.38,26.31,26.38Zm0-35.17c4.84,0,8.77,3.94,8.77,8.79s-3.93,8.79-8.77,8.79-8.77-3.94-8.77-8.79,3.93-8.79,8.77-8.79Z"/>
      <path class="cls-1" d="M178.19,186.75h30.35c8.38,0,15.17-4.71,15.17-10.53s-6.79-10.52-15.17-10.52h-30.35c-8.38,0-15.17,4.71-15.17,10.52s6.79,10.53,15.17,10.53Z"/>
      <path class="cls-1" d="M119.19,255.43c6.67,11.58,18.99,18.87,32.58,18.87s26.01-7.35,32.65-19c2.06-3.61,.81-8.22-2.8-10.28-3.6-2.07-8.2-.81-10.26,2.8-3.99,7-11.41,11.41-19.6,11.41s-15.55-4.37-19.55-11.33c-2.08-3.6-6.67-4.84-10.27-2.76-3.6,2.08-4.83,6.69-2.75,10.29Z"/>
    </g>
  </g>
</svg>